# xmcd
#
# Track frame offsets: 
#        150
#        16581
#        30461
#        44295
#        58602
#        74957
#        76668
#        92358
#        111318
#        127682
#        143831
#        150067
#        166697
#        182205
#        197249
#        215203
#        230855
#        243917
#        260230
#
# Disc length: 3931 seconds
#
# Revision: 0
# Processed by: cddbd v1.5.1PL2 Copyright (c) Steve Scherf et al.
# Submitted via: ExactAudioCopy v0.95a5
#
DISCID=fe0f5913
DTITLE=Mr. Trippalot - My Ways
DYEAR=2006
DGENRE=Sureño Rap
TTITLE0=01. My Ways ft. Shifty
TTITLE1=02. Never ft. Dinero
TTITLE2=03. Ready or Not ft. Shifty
TTITLE3=04. Modo Loco
TTITLE4=05. Tired of This
TTITLE5=06. Gang Bang Skit
TTITLE6=07. Gang Bang ft. Royal T
TTITLE7=08. What we Do ft. Dinero, Shifty
TTITLE8=09. Knownfor Ridin' ft. Risky
TTITLE9=10. Talk to You ft. Garfield
TTITLE10=11. Little Fast Skit
TTITLE11=12. West Side Livin ft. Dinero, Shifty
TTITLE12=13. Ride With Me ft. Diamyn
TTITLE13=14. California ft. Lil Bandit, Bullet Loco, Diamyn
TTITLE14=15. Brown and Proud ft. Big Capone, Bullet Loco
TTITLE15=16. Its Like That ft. Dinero, Shifty, Risky
TTITLE16=17. I Love You Loveft. Diamyn
TTITLE17=18. Enjoy a Trago ft. Dinero
TTITLE18=19. www.LOWPROFILERECORDS.com Mix
EXTD=
EXTT0=
EXTT1=
EXTT2=
EXTT3=
EXTT4=
EXTT5=
EXTT6=
EXTT7=
EXTT8=
EXTT9=
EXTT10=
EXTT11=
EXTT12=
EXTT13=
EXTT14=
EXTT15=
EXTT16=
EXTT17=
EXTT18=
PLAYORDER=
